<?xml version="1.0" standalone="no"?>
<!DOCTYPE svg PUBLIC "-//W3C//DTD SVG 20010904//EN"
 "http://www.w3.org/TR/2001/REC-SVG-20010904/DTD/svg10.dtd">
<svg version="1.0" xmlns="http://www.w3.org/2000/svg"
 width="547.000000pt" height="547.000000pt" viewBox="0 0 547.000000 547.000000"
 preserveAspectRatio="xMidYMid meet">
<metadata>
Created by potrace 1.11, written by Peter Selinger 2001-2013
</metadata>
<g transform="translate(0.000000,547.000000) scale(0.100000,-0.100000)"
fill="#000000" stroke="none">
<path d="M1882 5348 c0 -7 -3 -29 -6 -48 -2 -19 -5 -97 -5 -172 l-1 -138 -59
0 c-39 0 -63 5 -71 15 -16 19 -382 17 -402 -2 -19 -20 -324 -18 -371 2 -48 20
-346 19 -396 -1 -48 -20 -341 -20 -380 0 -25 14 -32 13 -78 -9 -30 -13 -54
-32 -58 -44 -3 -12 -11 -21 -16 -21 -5 0 -9 -718 -9 -1866 0 -1241 3 -1863 10
-1859 6 3 10 2 10 -4 0 -5 22 -20 50 -34 43 -22 64 -25 167 -26 65 -1 136 -6
158 -11 22 -5 118 -7 215 -4 96 4 267 6 380 5 422 -3 538 -3 663 4 72 4 127 4
127 -1 0 -5 -56 -149 -126 -319 -161 -399 -181 -456 -189 -547 -5 -60 -4 -82
9 -107 l17 -31 1213 0 1213 0 -2 108 c-3 132 -5 145 -65 290 -26 64 -58 142
-70 172 -12 30 -26 64 -30 75 -34 81 -123 303 -127 316 -3 10 3 20 14 24 10 5
376 10 813 12 437 2 809 6 825 8 17 3 47 21 68 40 l37 35 0 1856 0 1855 -36
39 c-45 48 -92 61 -154 43 -66 -20 -301 -20 -369 1 -79 23 -375 19 -411 -6
-21 -15 -48 -18 -183 -18 -143 0 -161 2 -184 20 -23 18 -40 19 -197 19 -151
-1 -175 -3 -205 -20 -27 -16 -36 -18 -42 -7 -5 7 -9 69 -10 138 0 69 -3 145
-5 169 -4 30 -1 47 8 52 7 5 -381 9 -863 9 -693 0 -876 -3 -877 -12z"/>
</g>
</svg>
